<?xml version="1.0" standalone="no"?>
<!DOCTYPE svg PUBLIC "-//W3C//DTD SVG 20010904//EN"
 "http://www.w3.org/TR/2001/REC-SVG-20010904/DTD/svg10.dtd">
<svg version="1.0" xmlns="http://www.w3.org/2000/svg"
 width="500.000000pt" height="500.000000pt" viewBox="0 0 500.000000 500.000000"
 preserveAspectRatio="xMidYMid meet">
<metadata>
Created by potrace 1.14, written by Peter Selinger 2001-2017
</metadata>
<g transform="translate(0.000000,500.000000) scale(0.100000,-0.100000)"
fill="#000000" stroke="none">
<path d="M1250 3467 l0 -206 -34 20 c-18 11 -72 26 -119 33 -47 8 -101 22
-121 31 -32 15 -101 88 -101 106 0 4 -3 11 -7 14 -4 4 -7 -470 -6 -1054 1
-1038 1 -1061 19 -1031 11 17 19 34 19 38 0 4 13 24 29 43 30 36 86 60 171 74
43 7 91 30 119 57 12 11 24 18 26 16 3 -2 5 -51 6 -108 l1 -103 28 49 c44 75
91 114 188 156 48 20 97 46 108 58 22 21 35 26 33 13 -1 -5 -1 -57 0 -118 l1
-110 28 55 c33 66 86 108 181 145 38 14 81 35 95 46 13 10 29 19 34 19 6 0 10
-44 10 -108 0 -59 1 -114 1 -123 1 -14 101 -16 1086 -16 l1085 -1 0 24 c0 18
-6 24 -22 25 -13 0 -328 2 -700 3 -372 1 -680 5 -683 8 -4 4 -7 22 -7 40 l0
33 -54 -3 c-61 -4 -55 -14 -57 97 0 33 -3 58 -6 56 -4 -2 -6 -51 -6 -110 1
-58 -3 -109 -8 -112 -7 -4 -214 -7 -280 -4 -17 1 -18 43 -17 854 1 943 3 912
-63 999 -18 24 -64 64 -102 90 -39 26 -91 68 -117 93 -26 25 -48 45 -50 45 -2
0 -3 -51 -2 -112 1 -156 3 -151 -56 -122 -26 13 -53 24 -60 24 -26 0 -117 45
-149 74 -28 26 -74 103 -76 128 0 3 -3 9 -6 12 -3 3 -5 -20 -4 -51 1 -32 0
-66 -3 -75 -4 -18 -32 -26 -32 -9 0 5 -37 26 -82 48 -69 31 -146 81 -225 145
-10 8 -13 -32 -13 -195z m867 -102 c34 -23 70 -76 84 -125 19 -70 23 -1622 4
-1667 -20 -48 -74 -70 -124 -51 -20 8 -43 27 -53 45 -17 29 -19 63 -17 499 1
469 6 1308 8 1332 1 13 54 -5 98 -33z m554 -1831 c27 3 39 0 36 -7 -3 -11 -68
-17 -93 -9 -6 1 -10 15 -8 30 3 39 4 40 16 10 9 -25 14 -27 49 -24z"/>
<path d="M2988 3552 c-18 -2 -28 -9 -29 -20 -1 -32 -1 -417 0 -441 1 -18 4
-21 14 -12 10 8 13 36 11 103 -3 126 -3 127 51 123 35 -2 50 -8 66 -29 11 -14
26 -32 32 -39 16 -16 105 -136 116 -155 4 -8 13 -13 20 -11 12 4 -46 90 -121
182 -22 26 -38 47 -36 48 1 0 19 3 38 6 19 2 46 10 59 16 85 41 84 173 -1 214
-24 12 -163 21 -220 15z m238 -55 c33 -38 33 -96 0 -134 -23 -27 -28 -28 -133
-31 l-108 -4 1 94 c1 51 2 97 3 101 0 5 49 7 107 5 102 -3 107 -4 130 -31z"/>
<path d="M3540 3550 c0 -6 -16 -43 -36 -83 -20 -39 -48 -103 -64 -142 -30 -74
-67 -154 -101 -218 -19 -36 -19 -39 -3 -35 11 2 30 31 50 78 l33 75 132 0 133
0 32 -75 c18 -41 40 -76 48 -78 13 -3 11 8 -9 55 -14 32 -30 66 -35 75 -5 9
-34 77 -64 150 -71 176 -87 208 -103 208 -7 0 -13 -5 -13 -10z m30 -40 c0 -5
12 -35 26 -67 52 -113 75 -183 62 -188 -7 -2 -58 -3 -113 -2 -121 2 -119 -4
-43 157 47 98 68 130 68 100z"/>
<path d="M3922 3540 c-62 -28 -87 -95 -62 -167 12 -34 70 -67 137 -77 78 -11
113 -40 119 -95 9 -86 -114 -140 -219 -96 -42 17 -61 19 -52 5 23 -38 167 -55
221 -27 66 34 91 104 60 165 -20 38 -52 56 -131 72 -71 15 -99 32 -115 70 -24
58 12 120 80 140 39 11 114 -3 137 -25 8 -9 19 -13 24 -9 26 16 -46 55 -111
60 -30 3 -59 -2 -88 -16z"/>
<path d="M2540 3310 c0 -202 3 -240 15 -240 11 0 15 22 17 107 l3 107 91 2
c142 3 190 39 188 141 -3 97 -46 123 -203 123 l-111 0 0 -240z m240 205 c37
-19 50 -43 50 -95 0 -83 -44 -110 -182 -110 l-78 0 0 110 0 110 90 0 c62 0
100 -5 120 -15z"/>
<path d="M3865 2698 c0 -192 3 -252 13 -255 9 -4 12 51 12 251 0 198 -3 256
-12 256 -10 0 -13 -57 -13 -252z"/>
<path d="M2543 2695 c0 -173 3 -245 11 -246 6 0 58 0 115 1 142 2 185 20 209
89 24 68 6 127 -49 160 -27 17 -29 20 -13 25 11 3 27 20 37 37 19 33 23 109 6
109 -5 0 -8 4 -4 9 3 5 -9 20 -27 33 -30 21 -45 23 -159 25 l-125 2 -1 -244z
m224 216 c12 0 34 -11 48 -24 46 -39 34 -131 -22 -156 -13 -6 -69 -11 -123
-11 l-100 0 0 98 0 97 88 -1 c48 -1 97 -2 109 -3z m55 -235 c64 -42 51 -152
-22 -188 -26 -14 -60 -18 -132 -18 l-98 0 0 114 0 114 113 -2 c88 -2 118 -6
139 -20z"/>
<path d="M3536 2823 c-65 -19 -97 -69 -104 -162 -6 -94 15 -148 71 -184 22
-15 51 -28 64 -28 13 -1 29 -2 36 -3 25 -4 93 28 120 58 35 38 51 97 44 162
-9 90 -50 146 -117 160 -56 11 -65 11 -114 -3z m145 -30 c58 -35 84 -167 47
-238 -33 -61 -64 -80 -131 -80 -46 0 -69 5 -89 20 -61 45 -79 156 -38 239 37
78 133 105 211 59z"/>
<path d="M3085 2818 c-42 -15 -48 -21 -73 -71 -20 -40 -30 -120 -20 -167 6
-28 51 -99 60 -94 4 3 8 0 8 -6 0 -17 51 -33 107 -32 100 1 166 74 164 184 -1
74 -6 94 -38 136 -42 55 -131 77 -208 50z m153 -26 c46 -24 74 -86 71 -159 -3
-70 -18 -104 -62 -137 -68 -52 -188 -26 -218 47 -18 41 -18 153 -1 192 32 74
128 100 210 57z"/>
<path d="M4020 2742 c-81 -79 -109 -122 -80 -122 11 0 72 -61 135 -133 38 -45
65 -65 65 -49 0 4 -42 53 -94 107 l-94 100 94 93 c51 50 87 92 79 92 -8 0 -55
-40 -105 -88z"/>
<path d="M2993 2262 c-3 -9 -23 -54 -44 -100 -22 -45 -39 -84 -39 -86 0 -3
-22 -51 -49 -108 -26 -56 -52 -114 -56 -128 -4 -14 -13 -34 -19 -45 -25 -41
-46 -104 -36 -110 9 -5 62 97 83 158 5 13 18 17 59 18 288 3 288 3 288 -28 0
-8 6 -27 14 -41 8 -15 22 -48 32 -74 9 -27 23 -48 30 -48 8 0 14 4 14 8 0 22
-68 171 -75 164 -5 -4 -5 -2 -2 4 7 12 -21 87 -69 189 -15 33 -29 65 -30 70
-2 6 -18 45 -36 87 -34 79 -54 101 -65 70z m97 -217 c13 -33 29 -63 34 -67 6
-4 8 -8 4 -8 -4 0 0 -16 8 -35 7 -19 14 -37 14 -39 0 -3 -65 -5 -145 -4 -80 0
-145 2 -145 4 0 6 34 80 98 214 l54 115 27 -60 c15 -33 38 -87 51 -120z"/>
<path d="M3870 1970 c0 -263 1 -300 15 -300 13 0 15 38 15 300 0 255 -2 300
-14 300 -13 0 -15 -45 -16 -300z"/>
<path d="M3399 2213 c-1 -92 6 -520 10 -535 0 -5 6 -8 11 -8 6 0 10 53 10 139
l0 139 94 1 c161 2 221 43 220 150 0 68 -13 93 -65 130 -37 28 -44 29 -159 30
l-120 2 -1 -48z m261 -4 c47 -26 59 -51 56 -116 -1 -53 -19 -83 -61 -106 -11
-6 -66 -11 -122 -12 l-102 -2 -3 46 c-2 25 -2 83 0 129 l3 82 96 0 c79 0 102
-4 133 -21z"/>
<path d="M2448 1969 c-3 -9 -23 -16 -53 -18 -11 -1 -17 -410 -6 -412 48 -8 66
-3 66 18 0 13 5 22 10 20 6 -1 9 -10 9 -19 -1 -10 4 -18 10 -19 76 -7 81 -6
81 23 0 15 -4 28 -10 29 -5 0 -28 2 -50 3 -22 2 -43 4 -46 5 -3 0 -5 87 -4
191 1 105 0 190 -1 190 -1 0 -4 -5 -6 -11z"/>
<path d="M2481 1950 c-10 -6 -8 -66 2 -62 4 1 25 2 48 2 39 0 40 1 37 32 -3
29 -6 32 -41 33 -21 0 -41 -2 -46 -5z"/>
<path d="M2601 1934 c0 -11 3 -14 6 -6 3 7 2 16 -1 19 -3 4 -6 -2 -5 -13z"/>
<path d="M2595 1900 c-3 -5 -1 -10 4 -10 6 0 11 5 11 10 0 6 -2 10 -4 10 -3 0
-8 -4 -11 -10z"/>
<path d="M2599 1878 c-6 -13 -3 -68 3 -68 4 0 8 16 8 35 0 28 -6 45 -11 33z"/>
<path d="M2520 1861 l-45 -6 0 -117 c0 -65 2 -119 5 -119 22 -5 80 -5 81 0 1
9 6 251 5 249 -1 0 -21 -4 -46 -7z"/>
<path d="M2696 1861 c-3 -5 -21 -7 -39 -6 l-32 4 1 -117 c1 -64 3 -121 3 -125
1 -4 21 -7 46 -6 l44 3 -1 128 c-1 116 -6 145 -22 119z"/>
<path d="M2596 1792 c-2 -4 -1 -14 4 -22 7 -11 9 -9 7 8 -1 24 -3 26 -11 14z"/>
</g>
</svg>
