<?xml version="1.0" encoding="utf-8"?>
<!DOCTYPE svg PUBLIC "-//W3C//DTD SVG 1.0//EN" "http://www.w3.org/TR/2001/REC-SVG-20010904/DTD/svg10.dtd">
<svg version="1.0" xmlns="http://www.w3.org/2000/svg" width="171px" height="169px" viewBox="0 0 171 169" preserveAspectRatio="xMidYMid meet">
 <g fill="#3d4785">
  <path d="M74.8 168 c-29.3 -4.6 -53.1 -21.9 -65.2 -47.3 -10.5 -22.2 -10.4 -50.4 0.4 -72.2 20.5 -41.4 71 -58.7 111.7 -38.3 35 17.5 53.3 56.5 44.3 94.4 -5.6 23.6 -22 44 -44.3 55.2 -13.6 6.9 -33.4 10.3 -46.9 8.2z m17 -47.9 c4 -2.7 19.2 -9.8 23 -10.6 2.9 -0.6 3.2 -1 3.2 -4.3 0 -3.5 0.4 -3.9 8.6 -9.2 4.7 -3 9.4 -5.9 10.4 -6.4 1.7 -0.9 1.6 -1.2 -0.8 -4.5 -1.5 -2 -2.9 -3.8 -3.3 -4.1 -0.3 -0.3 -0.8 -1.3 -1.2 -2.3 -0.6 -1.7 -0.9 -1.6 -4.7 0.3 -3.9 2 -4 2.2 -4 7.3 0 2.8 -0.4 5.7 -0.8 6.3 -0.4 0.7 -4.8 3.9 -9.7 7.2 -8.2 5.5 -15.8 12 -22.4 19.5 -2.8 3.1 -2.1 3.5 1.7 0.8z m-23.4 -5.3 c-9.6 -10 -14.2 -16.1 -18.4 -24.6 -2.3 -4.5 -5.1 -8.7 -6.6 -9.7 l-2.6 -1.7 -4.3 4.9 c-2.4 2.7 -3.8 5 -3.1 5.2 0.6 0.2 2.9 1.6 5.1 3.1 2.2 1.5 6.1 3.7 8.8 5 4.3 2.2 4.7 2.6 4.7 6.1 0 2 -0.7 4.2 -1.5 4.9 -1.3 1.1 -1 1.5 2.2 3.3 10 5.4 18.9 9.6 20.3 9.7 0.8 0 -1.3 -2.8 -4.6 -6.2z m21.6 -37.2 c0 -2.6 0.5 -4.6 1.3 -4.9 0.6 -0.3 -1.4 -0.6 -4.7 -0.6 -4.9 -0.1 -5.7 0.1 -5.2 1.5 0.3 0.9 0.6 3.1 0.6 5 0 3.3 0.1 3.4 4 3.4 l4 0 0 -4.4z m21.5 -1.6 c2.1 -4 1.9 -5 -0.8 -5 -2 0 -2.2 0.4 -1.9 4 0.2 2.2 0.6 4 0.8 4 0.2 0 1 -1.3 1.9 -3z m-48.3 -3.7 c0.8 -1 0.4 -1.3 -1.6 -1.3 -2.9 0 -3.4 1.8 -1.4 5.3 l1.3 2.2 0.3 -2.5 c0.2 -1.4 0.9 -3.1 1.4 -3.7z m53.8 -13.6 c5.6 -1.4 5.5 -1.6 -1.7 -3.6 -5 -1.4 -5.9 -2.7 -8.5 -13.5 -2.7 -10.9 -4.3 -14 -7.1 -13.1 -12.2 3.9 -13.4 4 -20.5 2.1 -3.7 -1 -7.3 -1.9 -8.1 -1.9 -1.9 -0.3 -4.6 5.4 -7.1 14.8 -1.2 4.4 -2.6 8.5 -3.2 9.2 -0.6 0.7 -3.6 2.1 -6.7 3 l-5.6 1.7 4.5 0.8 c12.5 2.4 17.1 2.6 37 2.3 14.4 -0.2 23.3 -0.8 27 -1.8z"/>
 </g>
 <g fill="#ffffff">
  <path d="M73 141.4 c0 -3.2 5.3 -13.4 11 -20.9 7.1 -9.4 14.8 -16.6 25.5 -23.7 4.9 -3.3 9.3 -6.5 9.7 -7.2 0.4 -0.6 0.8 -3.5 0.8 -6.4 l0 -5.2 5.9 -2.9 c5.6 -2.7 6.1 -2.8 7.5 -1.2 0.9 1 1.6 2.2 1.6 2.8 0 0.6 0.3 1.3 0.8 1.5 1.3 0.6 8.2 10.1 8.2 11.4 0 0.7 -1 1.6 -2.2 2.1 -3.2 1.1 -20.8 12.6 -20.8 13.5 0 0.4 1.7 1 3.8 1.3 7.4 1.3 7.9 2 2 3.5 -23.2 5.9 -39.6 15.7 -51.5 30.7 -2 2.6 -2.2 2.6 -2.3 0.7z"/>
  <path d="M66 122.5 c-17.2 -8.4 -25 -12.9 -24.7 -13.8 0.2 -0.6 1.1 -1.4 2 -1.9 0.9 -0.4 2.5 -1.2 3.4 -1.6 3 -1.5 2.4 -2.8 -2.4 -5.2 -2.7 -1.3 -6.6 -3.5 -8.8 -5 -2.2 -1.4 -5.3 -3.1 -6.9 -3.8 -3.2 -1.4 -3.5 -0.7 5.3 -11 4.4 -5 5.9 -6.1 7.5 -5.6 4.4 1.4 7.9 5.2 11.6 12.6 3.9 7.9 12.2 18.8 20.4 26.8 5.1 4.9 5.4 6.2 2.8 10.1 l-1.7 2.6 -8.5 -4.2z"/>
  <path d="M91.8 87 c-4.4 -2.4 -7.6 -2.5 -10.2 -0.5 -2.9 2.2 -11.5 1.9 -16.9 -0.5 -5.5 -2.4 -8.7 -7.2 -9 -13.2 l-0.2 -4.3 30.4 0 c24.3 0 30.5 0.3 30.9 1.3 0.2 0.8 -0.1 3.1 -0.7 5.2 -3 10.2 -16 16.6 -24.3 12z m-14.4 -6.6 c3.1 -3 1.2 -5.5 -4.8 -6.1 -5.5 -0.7 -8.1 0.9 -6.5 3.9 1.9 3.6 8.6 4.9 11.3 2.2z m26.2 -0.7 c3.6 -3.2 2.7 -5.7 -2 -5.7 -7 0 -11.3 4.3 -6.8 6.9 2.8 1.7 5.9 1.2 8.8 -1.2z"/>
  <path d="M64 63.5 c-0.8 -0.2 -4.9 -0.8 -9 -1.5 -15.2 -2.3 -16.9 -5.1 -5.5 -8.8 3.8 -1.2 7.5 -2.8 8.2 -3.5 0.6 -0.6 2.1 -4.8 3.3 -9.2 3.8 -14.4 7 -18.6 11.9 -16.1 1.4 0.8 5 2.1 8 3 5.2 1.5 5.5 1.5 12.7 -1 4.2 -1.4 8.3 -2.3 9.4 -1.9 2.7 0.9 4.5 4.5 6.8 14.1 2.6 10.8 3.5 12.1 8.5 13.5 13.2 3.5 14.1 6.6 2.7 9.5 -4.9 1.2 -12.4 1.7 -31 1.9 -13.5 0.2 -25.2 0.2 -26 0z"/>
 </g>
</svg>